<?xml version="1.0" encoding="UTF-8"?>
<svg id="Layer_1" data-name="Layer 1" xmlns="http://www.w3.org/2000/svg" viewBox="0 0 100 100">
  <defs>
    <style>
      .cls-1 {
        fill: #ffe1bd;
      }

      .cls-1, .cls-2, .cls-3, .cls-4, .cls-5, .cls-6, .cls-7, .cls-8, .cls-9 {
        stroke-width: 0px;
      }

      .cls-2 {
        fill: #e6b796;
      }

      .cls-3 {
        fill: #e0a372;
      }

      .cls-4 {
        fill: #0a84a5;
      }

      .cls-5 {
        fill: #ff4848;
      }

      .cls-6 {
        fill: #664e27;
      }

      .cls-7 {
        fill: #e2e9ed;
      }

      .cls-8 {
        fill: #fff;
      }

      .cls-9 {
        fill: #231f20;
      }
    </style>
  </defs>
  <path class="cls-1" d="M30.13,42.1c2.74,2.84,3.09,7.08.77,9.47-2.32,2.4-6.43,2.04-9.17-.79-2.74-2.84-3.09-7.08-.77-9.48,2.32-2.4,6.43-2.04,9.17.8Z"/>
  <path class="cls-5" d="M81.56,83.62H18.44c0-36.42,14.13-39.88,31.56-39.88,17.43,0,31.56,3.46,31.56,39.88Z"/>
  <path class="cls-1" d="M73.39,37.39c0,14.3-2.68,25.89-23.39,25.89s-23.39-11.59-23.39-25.89c0-4.59,46.78-4.59,46.78,0Z"/>
  <path class="cls-8" d="M43.91,43.84c0,3.6-2.83,6.52-6.31,6.52s-6.31-2.92-6.31-6.52,2.83-6.52,6.31-6.52c3.48,0,6.31,2.92,6.31,6.52Z"/>
  <path class="cls-4" d="M42.33,43.84c0,2.7-2.12,4.89-4.74,4.89s-4.73-2.19-4.73-4.89,2.12-4.89,4.73-4.89c2.62,0,4.74,2.19,4.74,4.89Z"/>
  <path class="cls-9" d="M39.18,43.84c0,.9-.71,1.63-1.58,1.63s-1.58-.73-1.58-1.63.7-1.63,1.58-1.63,1.58.73,1.58,1.63Z"/>
  <ellipse class="cls-8" cx="62.4" cy="43.84" rx="6.31" ry="6.52"/>
  <path class="cls-4" d="M67.14,43.84c0,2.7-2.12,4.89-4.73,4.89s-4.73-2.19-4.73-4.89,2.12-4.89,4.73-4.89,4.73,2.19,4.73,4.89Z"/>
  <path class="cls-9" d="M63.98,43.84c0,.9-.71,1.63-1.58,1.63s-1.58-.73-1.58-1.63.71-1.64,1.58-1.64,1.58.73,1.58,1.64Z"/>
  <path class="cls-7" d="M76.63,59.66c0,19.28-11.56,22.82-25.81,22.82s-25.81-3.54-25.81-22.82c0-10.86,11.56-11.25,25.81-11.25s25.81.39,25.81,11.25Z"/>
  <ellipse class="cls-6" cx="49.96" cy="56.05" rx="3.71" ry="3.83"/>
  <path class="cls-8" d="M68.22,41.27c-3.11-.26,6.4,7.79-8.58,6.64-5.24-.4-9.68,3.43-9.68,6.86,0,4.14,4.26,7.29,10.84,7.29,7.73,0,13.3-4.74,14.4-11.51.48-2.95-1.75-8.84-6.97-9.27Z"/>
  <path class="cls-8" d="M40.36,47.91c-14.97,1.15-5.46-6.9-8.58-6.64-5.22.43-7.45,6.33-6.97,9.27,1.1,6.77,6.67,11.51,14.4,11.51,6.57,0,10.84-3.15,10.84-7.29,0-3.43-4.44-7.26-9.68-6.86Z"/>
  <path class="cls-3" d="M61.4,49.45c.28,1.14-.77,2.4-2.35,2.82s-3.09-.17-3.37-1.31.77-2.4,2.35-2.82c1.58-.42,3.09.17,3.37,1.31Z"/>
  <path class="cls-3" d="M38.69,49.45c-.28,1.14.77,2.4,2.35,2.82,1.58.42,3.09-.17,3.37-1.31.28-1.14-.77-2.4-2.35-2.82-1.58-.42-3.09.16-3.37,1.31Z"/>
  <ellipse class="cls-2" cx="50.05" cy="48.6" rx="7.91" ry="5.45"/>
  <path class="cls-8" d="M79.46,35.91c0,2.26-1.3,4.09-4.2,4.09H24.74c-2.9,0-4.2-1.83-4.2-4.09s1.3-4.09,4.2-4.09h50.51c2.9,0,4.2,1.83,4.2,4.09Z"/>
  <path class="cls-5" d="M61.35,35.03c-18.44-3.7-35.43-3.22-35.43-3.22,0-7.62,13.38-13.42,27.58-13.42,14.98,0,25.73,7.92,27.39,21.59,2.03,16.76-12.43,27.68-10.78,23.95,8.5-19.24-1.7-27.48-8.76-28.9Z"/>
  <ellipse class="cls-8" cx="66.73" cy="68.65" rx="7" ry="7.23"/>
</svg>